<svg id="Réteg_1" data-name="Réteg 1" xmlns="http://www.w3.org/2000/svg" viewBox="0 0 1872.82 438.31"><defs><style>.cls-1{fill:#feff91;}.cls-2{fill:#fcff00;}</style></defs><path class="cls-1" d="M186.6,9.46l-31,61.1q-3-26.07-16.36-39.85T103.93,16.93q-31.22,0-48.56,24.24T38,109.07q0,96.12,78.69,96.13h26.73V119H101.6q-13.6,0-19.51-1.49a27,27,0,0,1-11.37-6.48v-4.15a32.51,32.51,0,0,0,12,5.9q6,1.41,19.42,1.41h41.34v-9H89.81q-24.74,0-24.73-17.93a18.06,18.06,0,0,1,4.15-11.95,12.55,12.55,0,0,1,10-5,10.48,10.48,0,0,1,7.55,3.15A10.11,10.11,0,0,1,90,81q0,7.31-5.31,8.46l-4,.83c-1.32.33-2,.89-2,1.66q0,2.16,5.48,2.16H199.38l-22.91,22.41v81.85l21.25,18.26H96.12q-21.08,0-34.86-5.15T33.37,193.24Q0,162.7,0,111.4q0-53,31.54-82.68Q59.1,2.67,97,2.66q16.93,0,38.85,6,22.41,6.15,29.55,6.15A47.75,47.75,0,0,0,186.6,9.46Zm-43.16,35.7-3-2.16q-18.93-13.45-34.53-13.45A45.23,45.23,0,0,0,73.21,43q-10,10-14.36,26.06t-4.4,42.5q0,33.54,6.64,51.3t24.41,32v1.83a65.17,65.17,0,0,1-27.73-32.29q-8.46-20.83-8.46-56.53,0-39.34,14.77-61.18T105.59,24.9q23.23,0,37.85,19.26Zm63.08,58.43-17.1,17.1v77.86L217,230.26l-65.91-.49-59.76.66a84.39,84.39,0,0,1-8.63-.33Q72.21,228.93,61.59,221h3.49q11.28,5,30.88,5l8.3-.17H207.69l-22.91-25.4V119l19.09-19.25Zm-10-83.67L168.17,75.7l-4-1.82,28.55-55.95Z"/><path class="cls-1" d="M238.4,23.57A166.38,166.38,0,0,1,323.07.83q35.19,0,58,15.27T403.92,55q0,19.26-14.95,34.12t-40.84,21.5A294.66,294.66,0,0,0,379.26,172q19.68,29.88,39.43,45.82l-2.49.83a219.46,219.46,0,0,0-48.48,23.91l-2.49,1.66-.83-5.31Q353.78,174.64,334.69,130l-.67-1.66q-11.44,5.31-30.71,8.47L302,137v62.09l29.22,31.21H245.37l-2.66-4.48h79l-24.07-25.57v-66.9l3.48-.5q18.93-2,31.71-7.47c-.66-1.33-1.05-2.16-1.16-2.49L330,118c-.11-.33-.39-1-.83-2q-10.29,3-38.85,6.48l-1.82.33v74l18.92,19.76H234.08l21.58-19.76V141.11l-1.32.17a170.29,170.29,0,0,0-17.44,4.81l-1.32.5-1.5-3.32a98.44,98.44,0,0,1,11.46-3.82l8.8-2.16,1.32-.33v-8.63q-9.79,0-24.4,4.32l-1.83.66a79.47,79.47,0,0,1,3.32-10.79q.33-.66,2.33-7.47c.11-.33.27-.83.5-1.5q7.47.51,11.62.5a63,63,0,0,0,8.3-.5V31.88a100.06,100.06,0,0,0-15.77-7.81Zm50.14-4.31v89.48a47.84,47.84,0,0,0,9.13-.83V26.23a84.08,84.08,0,0,1,21.91-2.49q32.37,0,44,21.25Q351.29,35,342,31.29t-22.24-3.73a70.69,70.69,0,0,0-17.77,2v78.36l1.83-.33q32.7-6,48.56-18.84t15.85-33.46q0-18.42-14.27-30.46t-36-12Q300.49,12.78,288.54,19.26Zm80.18,99.61q10.45,34.2,37,66.9,16.61,20.41,42,36.69a262,262,0,0,0-71.38,30.88l-1.5,1-3.32-2.66a236.52,236.52,0,0,1,67.57-30.55q-47.81-31.87-75.2-101.93l-1-2.82q50.8-19.26,50.8-58.77,0-16.28-13.11-35.53,16.75,15.27,16.76,38.85Q417.36,99.12,368.72,118.87Z"/><path class="cls-1" d="M600.31,3.65,583.05,23.24l27.22,72.39L616.91,92,592.34,26.56l17.6-20.25,4.32,1.82L597.49,27.56l23.24,61.92c1.33-1,2.1-1.6,2.33-1.82L628.54,83a47.13,47.13,0,0,0,6.3-5.65,115,115,0,0,0,13.29,33.87c-3.22-.22-5.54-.33-7-.33q-15.76,0-23.07,5l30,81.51L673,216.65H589.19l22.91-19.26-18.43-48.47q-18.25,18.42-28,35l-3.82-1q9.8-16.27,29.22-36.36l1.32-1.66-3.15-7.3a147.61,147.61,0,0,0-32.71,38.18l-3-4.81q-8.64-13.78-22.08-31.38l-1.66-2Q517,166,517,183.78q0,10.46,3.57,17.68t17.18,24.16l3.66,4.64H451.73l-3.32-4.48h84.5l-2.82-3.49q-11-13.28-14.36-20.66a41.12,41.12,0,0,1-3.41-17.35q0-16.93,13.78-50.47l-7.3-7.64q-2.16,5.33-5.48,15.61l-5.48,16.93q-4.48,13.62-4.48,22.58,0,9.3,3.15,15.44t13.28,16.77q1,1,3,3.15h-83q23.73-12.28,37.6-33t27.47-64.08l.67-2.32q-8.81-7.47-25.4-9.13a119.55,119.55,0,0,0,14.11-28.39c1.55,1.44,2.49,2.32,2.82,2.65l7.47,7a86.71,86.71,0,0,0,9.13,7.47l3-7.31-2-1.66Q506.34,80.52,500.7,76l-1.49-1.17,2.66-3.65A127.83,127.83,0,0,1,518.8,84.67l22.58-62.09L523.78,3.65Zm-48.47,34-26.4,69.72A231.19,231.19,0,0,1,547.19,133l7.63,10.62c.11.11.67.83,1.66,2.16a12.77,12.77,0,0,0,1.66-1.82l2.33-2.83c.33-.44.94-1.16,1.82-2.15a172.27,172.27,0,0,0-27.06-32.38l21.25-56.11Zm7.47,19.25L541,105.09a19.23,19.23,0,0,1,1.67,2l6.8,7.64q5.47,6,14,18.59l1.66,2.49A146.43,146.43,0,0,1,582.05,118Zm90.14,28.39q3.66,14.94,18.26,41c-2.43-.33-3.81-.5-4.15-.5l-13.44-1.16q-9.14-.83-13.28-.83c-.45,0-1.56.05-3.32.16l27.72,73.55,37,32.7H602.14L599,225.78h88.16l-29.88-26.4-29.55-78.19a51,51,0,0,1,12.94-1.49,149.67,149.67,0,0,1,19.93,1.49l-2-3.65Q648,98,644.31,82.18Z"/><path class="cls-1" d="M893.33,3.65q-18.93,9.79-24.4,17.93-8.31,12.62-8.3,38v157H832.57L754.21,64.58v90.15L754,162.2l2,23.9q3.32,16.6,15.1,24.57l1.33,1.17q-22.9-7.64-22.91-49l.17-15.6V56.45l-9-17.44v95.63q0,45.48,6,59.6t28,20.58l14.45,15.44h-90l-2.66-4.48h83.18l-8.64-9.13H693.78q20.25-7.31,26.89-19.59t6.64-42.17V22.08L705.23,3.65h84L765.66,19.42,846,176.14V156.22L777.12,22.08,800.36,6.31l3.16,3.15-20.59,14L846,147.26V60.93q0-28.89-4.74-38.6T818,3.65Zm5.81,12.29-3,5q-12.78,3-17.35,11T874.24,59.1V230.26h-35.7l-2.15-4.48h33.37v-165q0-23.4,6.06-32.62T899.14,15.94Z"/><path class="cls-1" d="M913.09,3.65H978.5q48,0,71,18.43,34.37,27.22,34.37,85.33,0,60.27-30.05,87.16a79.11,79.11,0,0,1-30.47,17.1q-16.85,5-44.74,5H908.11l22.74-17.43V22.74Zm5.31,226.61-2.49-4.48h60.76q44.82,0,68.07-12.45,50-26.57,50-102.76,0-51-22.42-75.71l-6.64-7.3c-.22-.22-.88-1-2-2.33q35.21,22.1,35.2,84.51,0,65.58-34.87,96.62-26.73,23.89-87.32,23.9Zm45-212.66V203.87h9.13V28.55a105,105,0,0,1,15.77-1.32q13.61,0,21.5,2.74t15.85,10A87.26,87.26,0,0,0,988,31.71q-4.32,0-11.29.66v171.5q18.58,0,28.22-3.07t18.26-11.87q24.08-24.41,24.08-82,0-56.28-26.07-76.86-15.76-12.45-50-12.45Z"/><path class="cls-1" d="M1337.09,3.65l-22.74,23.08v170.5l20.42,19.42H1258.4l23.07-19.42V85.5l-52.62,144.76h-15.94l-1.33-4.48H1226l55.44-154.39V46l-61.75,170.49H1208.1l-45.49-134v87.82q0,17.6,2.32,24.9t11,16.11l14.94,18.92H1104l-3-4.48h81.51l-6.14-9.13h-74.05l3.49-1.83q18.43-10.12,24.32-20.5t5.89-32.79V24.24L1114.13,3.65H1200L1175.89,25.4l47,139,6-14.45-42.5-123.18,21.75-16.1,3.48,2.82-20.75,14.61,39.51,115.71L1273.17,25.4,1252.92,3.65ZM1149.16,43V162.2q0,27.39,5.23,37.68t21.66,14.94l-1.49-2.49q-16.27-11.28-16.27-32.54V69.39Zm197.23-26.4-18.76,13.45V197.39l28.88,32.87h-88.15l-2.32-4.48h80.35l-23.08-26.06V27.23l19.59-13.45Z"/><path class="cls-1" d="M1515.89,3.65l-17.27,19.59,27.23,72.39,6.64-3.66-24.57-65.41,17.6-20.25,4.31,1.82-16.76,19.43,23.24,61.92c1.33-1,2.1-1.6,2.32-1.82l5.48-4.65a48.13,48.13,0,0,0,6.31-5.65,115,115,0,0,0,13.28,33.87q-4.82-.33-7-.33-15.78,0-23.08,5l30,81.51,24.9,19.26h-83.83l22.91-19.26-18.43-48.47q-18.27,18.42-28.06,35l-3.82-1q9.8-16.27,29.22-36.36l1.33-1.66-3.15-7.3a147.23,147.23,0,0,0-32.71,38.18l-3-4.81q-8.62-13.78-22.08-31.38l-1.66-2q-12.78,28.38-12.78,46.15,0,10.46,3.57,17.68t17.18,24.16q1.15,1.49,3.65,4.64H1367.3l-3.32-4.48h84.51l-2.83-3.49q-11-13.28-14.36-20.66a41.13,41.13,0,0,1-3.4-17.35q0-16.93,13.78-50.47l-7.3-7.64q-2.16,5.33-5.48,15.61l-5.48,16.93q-4.49,13.62-4.48,22.58,0,9.3,3.15,15.44t13.28,16.77c.67.66,1.66,1.71,3,3.15h-83q23.75-12.28,37.6-33t27.48-64.08l.66-2.32q-8.79-7.47-25.4-9.13a119.18,119.18,0,0,0,14.11-28.39c1.55,1.44,2.49,2.32,2.83,2.65l7.47,7a85.69,85.69,0,0,0,9.13,7.47l3-7.31-2-1.66q-8.29-7.3-13.94-11.78l-1.49-1.17,2.65-3.65a127.91,127.91,0,0,1,16.94,13.45L1457,22.58,1439.36,3.65Zm-48.48,34L1441,107.41A230,230,0,0,1,1462.76,133l7.64,10.62c.11.11.66.83,1.66,2.16a12.77,12.77,0,0,0,1.66-1.82l2.32-2.83c.34-.44.94-1.16,1.83-2.15a173,173,0,0,0-27.06-32.38l21.25-56.11Zm7.47,19.25-18.26,48.15a17.18,17.18,0,0,1,1.66,2l6.81,7.64q5.48,6,13.94,18.59l1.66,2.49A147.33,147.33,0,0,1,1497.63,118ZM1565,85.33q3.65,14.94,18.26,41c-2.43-.33-3.82-.5-4.15-.5l-13.45-1.16q-9.12-.83-13.28-.83c-.44,0-1.55.05-3.32.16l27.73,73.55,37,32.7h-96.13l-3.15-4.48h88.15l-29.88-26.4-29.55-78.19a51.05,51.05,0,0,1,13-1.49,149.41,149.41,0,0,1,19.92,1.49l-2-3.65Q1563.54,98,1559.88,82.18Z"/><path class="cls-1" d="M1663.81,2.32a57.52,57.52,0,0,1,5,22.75q0,41.34-49.14,57.27l-1.33-2.49,1.66-1.32q17.1-14.44,17.1-34.37a37,37,0,0,0-8.8-24.57,30.81,30.81,0,0,1,3.16-1.16A149.91,149.91,0,0,0,1663.81,2.32Zm16.43,5a69,69,0,0,1,2.83,18.43q0,47-55,67.9L1626,89.15l2.82-1q28-11.28,38.85-27.39,10.95-16.59,10.95-33.87,0-8.62-3-21.91Z"/><path class="cls-1" d="M1850.24,5.48a111,111,0,0,0-13.78,24.24q-10.12,24.9-13.44,30.54l-.83,1c-.45-1.22-.78-2.16-1-2.82q-4.65-14.94-7.64-20.75a39,39,0,0,0-9-11.13q-15.1-13.44-34.37-13.44-17.76,0-29.55,9.87t-11.78,24.82q0,27.9,42,38L1799,92.64q59.92,14.44,59.93,63.25,0,27.23-20.51,45.74t-50.71,18.51q-18.93,0-42.34-5.81l-19.42-4.82q-11.79-2.82-19.43-2.82-10.12,0-20.91,6.47l-1.33-2.32q20.58-31.05,28.89-59.1l3,.83q3.5,26.07,20.92,40.51t45.66,14.44q22.24,0,35.36-10.29t13.11-27.73q0-20.08-18.26-33.2Q1799.78,127,1759.1,119q-31.38-6.14-45.49-20.42T1699.5,58.94q0-26.23,18.84-42.59T1767.4,0q19.42,0,45.32,7,12.12,3.33,17.93,3.32,8.14,0,17.77-5.64Zm0,105.92q22.58,17.1,22.58,46.81,0,31.71-24.57,53.71t-59.76,22a132,132,0,0,1-32.38-3.66l-26.56-6.47a81.92,81.92,0,0,0-19.92-2.33,39.87,39.87,0,0,0-17.43,3.82l-2-4.81a41.52,41.52,0,0,1,17.59-4,101.47,101.47,0,0,1,22.75,3l25.56,6.15a138.35,138.35,0,0,0,32.21,3.65q33.21,0,56.53-21.17t23.32-51.22q0-25.4-17.93-44.49Zm-139-6,5.64,3.15q5.49,9.81,32,16.27l26.73,6.64q27.22,6.81,36.28,11.71a27.45,27.45,0,0,1,12.86,14.86l-1.16.66a48.08,48.08,0,0,0-16.18-12.62q-8.73-4-33.46-9.79-35.85-8.3-48.14-14.36T1711.29,105.42ZM1732,159.21q6.14,29.88,32.87,42.33v1.33q-30.87-9-37.35-42.83Zm80-113.72q-18.27-19.43-39.18-19.43-12.62,0-20.92,7.31a23.69,23.69,0,0,0-8.3,18.59q0,12.29,16.77,25.24l1.33.83-.83,1.33Q1739,69.57,1739,51q0-13,9.3-21.09t24.24-8.13q14.28,0,25,6.06a36.51,36.51,0,0,1,15.69,17Zm48.48-33-1.5,2.49a236.77,236.77,0,0,0-11.62,21.92q-11.62,24.41-13.11,27.22l-.83,1.16-4-1.66.67-1.49q4.81-11,13.94-28.55l11.29-21.92.83-1.33Z"/><path class="cls-2" d="M4.65,268.2H28.86v73.5H73.41V268.2H97.62V438.31H73.41v-79.6H28.86v79.6H4.65Z"/><path class="cls-2" d="M121.6,385V320.49c0-33.6,12.43-53.76,47.56-53.76,34.91,0,47.34,20.37,47.34,53.76v64.68c0,33.4-12.43,55-47.34,55C133.81,440.2,121.6,418.78,121.6,385Zm70.48,5.25V315.66c0-18.9-3.64-30.45-22.92-30.45-19.5,0-23.14,11.55-23.14,30.45v74.55c0,18.91,3.64,31.3,23.14,31.3C188.44,421.51,192.08,409.12,192.08,390.21Z"/><path class="cls-2" d="M243.05,268.2h23.78l30.63,138,30.85-138h23.56l3.21,170.11H335.59l-1.93-123.49L304.31,438.31h-13.7L261.47,314.82l-1.92,123.49H239.84Z"/><path class="cls-2" d="M381.64,268.2H448.9v17.64H405.84v56.28h34.92v16.8H405.84V421.3h43.49v17H381.64Z"/><path class="cls-2" d="M471.6,268.2h23.78l30.63,138,30.84-138h23.57l3.21,170.11H564.14l-1.93-123.49L532.86,438.31H519.15L490,314.82l-1.93,123.49h-19.7Z"/><path class="cls-2" d="M637.6,268.2H661L698,438.31H675.09l-7.93-42.85H631.82l-8.35,42.85H600.76ZM664,378.46,649.38,301.8,635,378.46Z"/><path class="cls-2" d="M715.57,268.2h37.7c38.56,0,51.41,17.43,51.41,51.87v62.59c0,36.12-13.07,55.65-49.48,55.65H715.57Zm37.91,153.1c26.35,0,26.78-15.54,26.78-43.05V323c0-26.25-2.57-37.17-27.42-37.17H739.77V421.3Z"/><path class="cls-2" d="M828.45,268.2h67.26v17.64H852.66v56.28h34.91v16.8H852.66V421.3h43.48v17H828.45Z"/><path class="cls-2" d="M966,268.2h23.78V438.31H966Z"/><path class="cls-2" d="M1014.58,383.71V323.64c0-34.44,9.86-56.91,46.7-56.91,32.35,0,43.7,18.27,43.7,48.93V329.1h-22.92v-12c0-18.9-.43-31.92-20.56-31.92-20.57,0-22.5,13.86-22.5,34.86v67.42c0,25.62,5.79,34,22.5,34,19.49,0,20.56-13.65,20.56-33.81V375.09H1105V387.7c0,31.29-9.64,52.5-43.7,52.5C1024.44,440.2,1014.58,415.42,1014.58,383.71Z"/><path class="cls-2" d="M1128.11,268.2h67.26v17.64h-43v56.28h34.91v16.8h-34.91V421.3h43.48v17h-67.69Z"/><path class="cls-2" d="M1261.13,383.71V323.64c0-34.44,9.85-56.91,46.69-56.91,32.35,0,43.7,18.27,43.7,48.93V329.1H1328.6v-12c0-18.9-.43-31.92-20.56-31.92-20.57,0-22.49,13.86-22.49,34.86v67.42c0,25.62,5.78,34,22.49,34,19.49,0,20.56-13.65,20.56-33.81V375.09h22.92V387.7c0,31.29-9.64,52.5-43.7,52.5C1271,440.2,1261.13,415.42,1261.13,383.71Z"/><path class="cls-2" d="M1374.65,268.2h34.92c34.7,0,51,12.81,51,45.15,0,19.95-6,34.65-21.42,39.69l24.63,85.27h-23.35l-22.7-79.81h-18.85v79.81h-24.21Zm33.42,73.29c20.35,0,29.13-6.3,29.13-28.14,0-20-5.57-28.14-27.63-28.14h-10.71v56.28Z"/><path class="cls-2" d="M1485.82,268.2h67.26v17.64h-43v56.28h34.91v16.8H1510V421.3h43.48v17h-67.69Z"/><path class="cls-2" d="M1600.42,268.2h23.35l37,170.11H1637.9L1630,395.46h-35.35l-8.35,42.85h-22.7Zm26.35,110.26L1612.2,301.8l-14.35,76.66Z"/><path class="cls-2" d="M1681.17,268.2H1705l30.63,138,30.84-138H1790l3.22,170.11h-19.49l-1.93-123.49-29.35,123.49h-13.71l-29.13-123.49-1.93,123.49H1678Z"/></svg>